<svg width="52" height="52" viewBox="0 0 52 52" fill="none" xmlns="http://www.w3.org/2000/svg">
<path d="M10.9688 10.9249C4.95635 10.9249 0.975098 19.3718 0.975098 27.239C0.975098 34.9406 4.63135 41.0687 9.5876 42.0624V49.5156C9.5876 50.3437 10.2376 51.0062 11.0501 51.0062C11.8626 51.0062 12.5126 50.3437 12.5126 49.5156V41.9796C17.3876 40.9031 21.0438 34.7749 21.0438 27.1562C20.9626 19.3718 16.9001 10.9249 10.9688 10.9249ZM12.4313 38.9984V34.1952C12.4313 33.3671 11.7813 32.7046 10.9688 32.7046C10.1563 32.7046 9.50635 33.3671 9.50635 34.1952V38.9984C6.3376 37.9218 3.81885 32.9531 3.81885 27.239C3.81885 20.3656 7.3126 13.8234 10.9688 13.8234C14.6251 13.8234 18.1188 20.3656 18.1188 27.239C18.1188 32.8702 15.6001 37.839 12.4313 38.9984Z" fill="#00B28C"/>
<path d="M51.375 20.8625C51.375 11.0078 46.4187 0.0765381 39.1875 0.0765381C31.9562 0.0765381 27 11.0906 27 20.8625C27 30.8 31.6313 38.75 37.725 39.8265V49.5156C37.725 50.3437 38.375 51.0062 39.1875 51.0062C40 51.0062 40.65 50.3437 40.65 49.5156V39.8265C46.7437 38.8328 51.375 30.8828 51.375 20.8625ZM40.65 36.8453V29.8062C40.65 28.9781 40 28.3156 39.1875 28.3156C38.375 28.3156 37.725 28.9781 37.725 29.8062V36.8453C33.3375 35.6031 29.8437 28.8125 29.8437 20.8625C29.8437 11.6703 34.3937 2.97498 39.1875 2.97498C43.9812 2.97498 48.5312 11.6703 48.5312 20.8625C48.5312 28.8125 45.0375 35.6859 40.65 36.8453Z" fill="#00B28C"/>
<line x1="31" y1="44.0372" x2="21" y2="44.0372" stroke="#00B28C" stroke-width="2" stroke-linecap="round"/>
<line x1="26" y1="39" x2="26" y2="48" stroke="#00B28C" stroke-width="2" stroke-linecap="round"/>
</svg>
