<svg width="100" height="102" viewBox="0 0 100 102" fill="none" xmlns="http://www.w3.org/2000/svg">
<mask id="path-1-inside-1_95_2094" fill="white">
<path fill-rule="evenodd" clip-rule="evenodd" d="M55.7239 83.6067C55.0276 87.9568 53.0333 94.6295 50.1338 96.917C47.8849 98.6949 45.3738 99.8676 42.4873 99.981C37.3523 100.246 33.7159 97.7112 31.2048 93.3606C28.506 88.707 28.8437 83.8651 30.8677 79.0604C31.7037 77.0673 32.7989 75.191 33.8946 73.3138C34.567 72.1617 35.2396 71.0093 35.8527 69.8295C37.0896 67.4457 37.9522 64.9114 38.5143 62.2631C38.5742 61.9818 38.6269 61.699 38.674 61.4145C38.5908 60.212 37.3416 59.3069 36.0976 58.4055C35.4319 57.9232 34.7677 57.4419 34.2843 56.9167C33.8936 56.4872 33.4964 56.0616 33.099 55.6358C31.3614 53.7738 29.6196 51.9074 28.3995 49.6905C25.363 44.1672 24.6132 38.3032 26.525 32.288C27.1696 30.2346 28.5497 28.5838 29.9449 26.915C30.0919 26.7391 30.2392 26.563 30.3857 26.3862C32.4097 23.9274 35.2213 23.1704 38.0323 22.6408C44.2926 21.4303 49.8396 23.5111 54.7879 27.2943C60.2228 31.4932 62.4718 37.2438 62.7345 44.016C62.9966 50.8637 61.7975 57.4842 60.335 64.1424C59.8473 66.3659 59.2994 68.5666 58.752 70.7649C58.0794 73.4663 57.4077 76.1643 56.8497 78.8967C56.3845 81.1749 56.0135 82.6518 55.7239 83.6067Z"/>
</mask>
<path d="M55.7239 83.6067L50.9391 82.1555L50.8404 82.4808L50.7867 82.8165L55.7239 83.6067ZM50.1338 96.917L47.0369 92.9916L47.033 92.9947L50.1338 96.917ZM42.4873 99.981L42.291 94.9849L42.2602 94.9861L42.2295 94.9877L42.4873 99.981ZM31.2048 93.3606L35.5353 90.8611L35.5301 90.8521L31.2048 93.3606ZM30.8677 79.0604L35.4755 81.0014L35.4785 80.9945L30.8677 79.0604ZM33.8946 73.3138L38.2128 75.8343L38.2128 75.8343L33.8946 73.3138ZM35.8527 69.8295L40.2895 72.1347L40.2907 72.1324L35.8527 69.8295ZM38.5143 62.2631L33.6242 61.2205L33.6232 61.225L38.5143 62.2631ZM38.674 61.4145L43.6067 62.2325L43.7026 61.654L43.6621 61.069L38.674 61.4145ZM36.0976 58.4055L33.1639 62.4544L33.1639 62.4544L36.0976 58.4055ZM34.2843 56.9167L30.5855 60.2811L30.5954 60.2919L30.6053 60.3027L34.2843 56.9167ZM33.099 55.6358L36.7545 52.2244L36.7545 52.2244L33.099 55.6358ZM28.3995 49.6905L24.018 52.0993L24.0191 52.1013L28.3995 49.6905ZM26.525 32.288L31.2901 33.8024L31.2927 33.7941L31.2954 33.7857L26.525 32.288ZM29.9449 26.915L26.1088 23.708L26.1088 23.708L29.9449 26.915ZM30.3857 26.3862L34.2352 29.577L34.2406 29.5705L34.2461 29.5639L30.3857 26.3862ZM38.0323 22.6408L38.9581 27.5543L38.9699 27.5521L38.9816 27.5498L38.0323 22.6408ZM54.7879 27.2943L57.8448 23.3376L57.8348 23.3299L57.8248 23.3222L54.7879 27.2943ZM62.7345 44.016L67.7308 43.8247L67.7307 43.8222L62.7345 44.016ZM60.335 64.1424L55.4514 63.0698L55.4511 63.0712L60.335 64.1424ZM58.752 70.7649L53.9002 69.5568L53.9002 69.5568L58.752 70.7649ZM56.8497 78.8967L51.9508 77.8963L51.9508 77.8963L56.8497 78.8967ZM50.7867 82.8165C50.4848 84.703 49.8917 87.1235 49.0804 89.2611C48.1811 91.6306 47.3491 92.7452 47.0369 92.9916L53.2308 100.842C55.818 98.8012 57.4329 95.4358 58.4297 92.8095C59.5145 89.9514 60.2668 86.8605 60.661 84.3969L50.7867 82.8165ZM47.033 92.9947C45.3743 94.306 43.8508 94.9236 42.291 94.9849L42.6835 104.977C46.8969 104.812 50.3955 103.084 53.2347 100.839L47.033 92.9947ZM42.2295 94.9877C40.5964 95.072 39.4185 94.7177 38.4773 94.1401C37.4893 93.5338 36.4853 92.5071 35.5353 90.8611L26.8744 95.86C28.4354 98.5646 30.5052 100.981 33.2469 102.663C36.0354 104.374 39.2432 105.155 42.745 104.974L42.2295 94.9877ZM35.5301 90.8521C33.8399 87.9379 33.8654 84.8237 35.4755 81.0014L26.2598 77.1193C23.822 82.9064 23.172 89.4762 26.8796 95.869L35.5301 90.8521ZM35.4785 80.9945C36.1661 79.3551 37.0886 77.7604 38.2128 75.8343L29.5763 70.7933C28.5092 72.6215 27.2413 74.7795 26.2569 77.1263L35.4785 80.9945ZM38.2128 75.8343C38.8748 74.7002 39.6104 73.4419 40.2895 72.1347L31.4158 67.5242C30.8689 68.5767 30.2593 69.6232 29.5763 70.7933L38.2128 75.8343ZM40.2907 72.1324C41.7595 69.3019 42.7616 66.3339 43.4053 63.3012L33.6232 61.225C33.1427 63.4888 32.4197 65.5896 31.4146 67.5265L40.2907 72.1324ZM43.4044 63.3057C43.4824 62.9397 43.5489 62.5812 43.6067 62.2325L33.7414 60.5965C33.7049 60.8168 33.6661 61.0239 33.6242 61.2205L43.4044 63.3057ZM43.6621 61.069C43.5021 58.7587 42.2425 57.1674 41.3968 56.3022C40.5634 55.4496 39.5649 54.7433 39.0313 54.3566L33.1639 62.4544C33.4898 62.6905 33.721 62.8589 33.9249 63.0191C34.1259 63.1769 34.2163 63.2622 34.2454 63.292C34.2768 63.3241 34.1676 63.2218 34.036 62.9839C33.8918 62.7232 33.7236 62.3029 33.686 61.76L43.6621 61.069ZM39.0313 54.3567C38.6808 54.1027 38.4412 53.928 38.2346 53.7637C38.0299 53.601 37.9621 53.5295 37.9633 53.5308L30.6053 60.3027C31.4956 61.2701 32.6095 62.0528 33.1639 62.4544L39.0313 54.3567ZM37.9831 53.5523C37.5673 53.0952 37.1482 52.6463 36.7545 52.2244L29.4436 59.0472C29.8446 59.4769 30.2199 59.8792 30.5855 60.2811L37.9831 53.5523ZM36.7545 52.2244C34.9404 50.2805 33.6491 48.8589 32.7799 47.2797L24.0191 52.1013C25.5901 54.9559 27.7823 57.2671 29.4436 59.0472L36.7545 52.2244ZM32.781 47.2817C30.3514 42.8624 29.8252 38.4116 31.2901 33.8024L21.7598 30.7735C19.4012 38.1947 20.3746 45.472 24.018 52.0993L32.781 47.2817ZM31.2954 33.7857C31.5924 32.8396 32.2664 31.9336 33.7809 30.122L26.1088 23.708C24.833 25.234 22.7468 27.6296 21.7545 30.7903L31.2954 33.7857ZM33.7809 30.122C33.9269 29.9474 34.0808 29.7633 34.2352 29.577L26.5363 23.1953C26.3975 23.3627 26.257 23.5308 26.1088 23.708L33.7809 30.122ZM34.2461 29.5639C35.0529 28.5838 36.2551 28.0636 38.9581 27.5543L37.1065 17.7272C34.1875 18.2772 29.7666 19.271 26.5254 23.2084L34.2461 29.5639ZM38.9816 27.5498C43.4241 26.6908 47.5498 28.0543 51.7511 31.2664L57.8248 23.3222C52.1295 18.9679 45.161 16.1697 37.0831 17.7317L38.9816 27.5498ZM51.7311 31.251C55.7189 34.332 57.5179 38.5303 57.7382 44.2098L67.7307 43.8222C67.4256 35.9574 64.7267 28.6545 57.8448 23.3376L51.7311 31.251ZM57.7381 44.2073C57.9746 50.3827 56.8986 56.4811 55.4514 63.0698L65.2186 65.215C66.6963 58.4872 68.0187 51.3448 67.7308 43.8247L57.7381 44.2073ZM55.4511 63.0712C54.981 65.2147 54.4503 67.3473 53.9002 69.5568L63.6039 71.9729C64.1485 69.7858 64.7137 67.5171 65.2189 65.2136L55.4511 63.0712ZM53.9002 69.5568C53.2318 72.2412 52.5336 75.0422 51.9508 77.8963L61.7486 79.897C62.2817 77.2863 62.927 74.6914 63.6039 71.9729L53.9002 69.5568ZM51.9508 77.8963C51.5009 80.0997 51.1655 81.409 50.9391 82.1555L60.5087 85.0579C60.8614 83.8947 61.2681 82.2502 61.7486 79.897L51.9508 77.8963Z" fill="#00B28C" mask="url(#path-1-inside-1_95_2094)"/>
<path d="M31.9975 1.0005C35.4084 0.962708 38.07 3.04354 39.157 5.61624C40.2068 8.03721 39.8691 10.5343 38.9321 12.9931C37.8823 15.717 36.4582 18.1763 34.8835 20.5973C34.0593 21.8461 33.6471 21.8833 32.5974 20.8246C30.3107 18.5164 27.8746 16.2844 26.4121 13.296C25.2879 10.9506 24.5381 8.52908 25.3257 5.91859C26.1127 3.15692 28.2867 1.37898 31.1355 1.07609C31.4726 1.0383 31.8476 1.0005 31.9975 1.0005Z" fill="#00B28C"/>
<path d="M42.2312 10.1933C42.1184 6.97759 44.143 4.59441 46.242 4.02696C48.4159 3.45951 50.3271 4.02696 51.8646 5.53979C53.4386 7.09097 54.0757 9.09622 53.5136 11.2148C53.1765 12.5387 52.3517 13.8253 51.5269 14.8846C49.99 16.8516 47.891 18.2138 45.8298 19.6132C45.3794 19.9161 45.1922 19.6516 45.005 19.2731C43.8803 17.3056 43.0555 15.2253 42.6061 13.0306C42.4184 12.123 42.1184 11.1393 42.2312 10.1933Z" fill="#00B28C"/>
<path d="M53.7758 19.9549C53.7386 19.0851 53.9635 17.8363 54.1507 16.588C54.4134 14.8101 55.3127 13.4479 56.5496 12.2752C57.7866 11.1025 59.2862 10.8374 60.8603 11.4426C62.3222 11.9723 63.4092 12.9943 63.8591 14.5455C64.2712 15.945 64.1962 17.1555 63.4464 18.5933C62.21 21.0142 60.0733 21.7334 57.8616 22.4898C56.7746 22.8305 55.5376 22.9061 54.4134 23.1707C53.8136 23.3218 53.7758 22.9817 53.7758 22.6032C53.7386 21.8468 53.7758 21.0898 53.7758 19.9549Z" fill="#00B28C"/>
<path d="M63.2586 29.7523C61.6095 29.8278 61.4967 29.7901 61.6467 28.3523C61.8344 26.3098 61.9844 24.2289 63.2963 22.4882C64.0456 21.4673 64.9082 20.5213 66.2945 20.4835C67.7942 20.4457 69.1811 20.7103 70.0431 22.1103C70.9052 23.5859 70.8679 25.2121 70.0809 26.6121C69.706 27.3313 68.8812 27.9738 68.0564 28.3901C66.4445 29.147 64.8327 29.7523 63.2586 29.7523Z" fill="#00B28C"/>
<path d="M66.5955 37.9998C66.8576 37.2811 66.8576 36.7515 66.8204 36.184C66.6704 33.7247 67.4953 31.7195 69.6314 30.3578C71.3555 29.2607 73.8299 30.2444 74.317 32.2491C74.8791 34.5195 73.9044 36.2974 71.6932 37.1294C70.1186 37.7352 68.5072 37.9998 66.5955 37.9998Z" fill="#00B28C"/>
</svg>
