<svg width="100" height="102" viewBox="0 0 100 102" fill="none" xmlns="http://www.w3.org/2000/svg">
<g clip-path="url(#clip0_94_1745)">
<path d="M22.8919 34.7948L49.4524 2.90357C49.8468 2.42993 50.5717 2.42248 50.9759 2.88791L78.6666 34.7792C79.2287 35.4265 78.7689 36.4348 77.9115 36.4348H67.2506C66.3615 36.4348 65.9145 37.5081 66.5407 38.1392L88.1759 59.9416C88.8021 60.5727 88.3551 61.646 87.466 61.646H77.5816C76.6986 61.646 76.249 62.7067 76.8629 63.3413L97.3797 84.5469C97.9937 85.1815 97.544 86.2422 96.661 86.2422H58.7061C58.0887 86.2422 57.6188 86.7962 57.7195 87.4054L59.7755 99.8368C59.8763 100.446 59.4064 101 58.789 101H41.6209C41.0034 101 40.5335 100.446 40.6343 99.8368L42.6903 87.4054C42.791 86.7962 42.3211 86.2422 41.7037 86.2422H4.31701C3.44025 86.2422 2.98795 85.1943 3.58937 84.5563L23.5978 63.3319C24.1992 62.694 23.7469 61.646 22.8702 61.646H13.4719C12.5948 61.646 12.1426 60.5973 12.7447 59.9595L33.3583 38.1212C33.9604 37.4834 33.5082 36.4348 32.6311 36.4348H23.6603C22.8126 36.4348 22.3494 35.4462 22.8919 34.7948Z" stroke="#00B28C" stroke-width="5"/>
</g>
<defs>
<clipPath id="clip0_94_1745">
<rect width="100" height="102" fill="white"/>
</clipPath>
</defs>
</svg>
