<svg width="100" height="102" viewBox="0 0 100 102" fill="none" xmlns="http://www.w3.org/2000/svg">
<g clip-path="url(#clip0_95_1797)">
<path d="M60.0416 48.0371L86.1696 62.0756C86.2456 62.1164 86.3267 62.1479 86.411 62.1693L87.0392 62.3288C87.3238 62.401 87.6308 62.3551 87.8928 62.2011L88.435 61.8825C88.8091 61.6626 89.0378 61.2549 89.0258 60.8295L88.994 59.711C88.9838 59.3527 88.8037 59.0291 88.5092 58.8401L62.9287 42.9643M60.0416 48.0371L59.232 47.6021C58.7284 47.3315 58.2894 46.9581 57.9489 46.4988C57.8103 46.3119 57.6503 46.0947 57.477 45.8569C55.9883 43.8151 57.1532 41.5135 59.6599 41.8323C59.7915 41.849 59.9191 41.8659 60.0416 41.8828C60.9456 42.0069 61.9663 42.3812 61.9663 42.3812L62.9287 42.9643M60.0416 48.0371L86.0332 62.0023C86.1998 62.0918 86.3768 62.1606 86.5601 62.2072L86.7636 62.2588C87.2249 62.3759 87.7138 62.3063 88.1241 62.0652V62.0652C88.6924 61.7312 89.0338 61.1143 89.0151 60.4554L89.01 60.2758C88.9899 59.5671 88.6155 58.9159 88.0132 58.5419L62.9287 42.9643" stroke="#00B28C" stroke-width="4"/>
<path d="M42.3163 39.2458L12.6565 39.4542C12.5702 39.4548 12.484 39.466 12.3997 39.4877L11.7719 39.649C11.4876 39.7221 11.2402 39.9096 11.0841 40.1703L10.7611 40.7099C10.5382 41.0822 10.5329 41.5496 10.7475 41.9172L11.3117 42.8835C11.4925 43.1931 11.8056 43.3906 12.1547 43.4153L42.2151 45.0818M42.3163 39.2458L43.2354 39.2394C43.807 39.2354 44.3713 39.3526 44.8903 39.5924C45.1016 39.6899 45.3462 39.8038 45.6123 39.9294C47.8977 41.0074 47.9791 43.5857 45.6264 44.5079C45.5029 44.5563 45.3828 44.6026 45.2672 44.6466C44.4144 44.9711 43.3392 45.132 43.3392 45.132L42.2151 45.0818M42.3163 39.2458L12.8113 39.4531C12.6222 39.4544 12.4339 39.4789 12.2507 39.526L12.0473 39.5782C11.5864 39.6967 11.1907 39.9921 10.9463 40.4005V40.4005C10.6077 40.9661 10.6038 41.6711 10.9362 42.2403L11.0268 42.3956C11.3843 43.0078 12.0251 43.3998 12.7329 43.4392L42.2151 45.0818" stroke="#00B28C" stroke-width="4"/>
<circle cx="52.0174" cy="43.0174" r="3.18024" stroke="#00B28C" stroke-width="4"/>
<path d="M50.2873 1.05329C50.2873 1.05329 39.0269 0.455244 30.6067 4.91348C22.1866 9.37172 17.1648 18.2577 17.1648 18.2577" stroke="#00B28C" stroke-width="4" stroke-linecap="round"/>
<path d="M34.085 15.5713C25.4796 19.6606 20.0777 28.3208 20.0777 28.3208" stroke="#00B28C" stroke-width="4" stroke-linecap="round"/>
<line x1="2" y1="-2" x2="50.4115" y2="-2" transform="matrix(0.131784 0.991279 -0.995023 0.0996467 50.2903 47.0465)" stroke="#00B28C" stroke-width="4" stroke-linecap="round"/>
<line x1="2" y1="-2" x2="50.5756" y2="-2" transform="matrix(-0.153268 0.988185 -0.993244 -0.116047 50.2903 47.0465)" stroke="#00B28C" stroke-width="4" stroke-linecap="round"/>
<line x1="41.9302" y1="98" x2="60.9534" y2="98" stroke="#00B28C" stroke-width="4" stroke-linecap="round"/>
<path d="M56.4398 34.4017L67.0021 6.68551C67.0328 6.60482 67.0536 6.52041 67.064 6.43401L67.1413 5.79052C67.1764 5.49903 67.0913 5.20044 66.905 4.96043L66.5193 4.46372C66.2531 4.12095 65.8194 3.94657 65.3991 4.01327L64.2939 4.18861C63.9399 4.24479 63.6422 4.46498 63.4926 4.78132L51.0378 32.1909M56.4398 34.4017L56.1125 35.2605C55.9089 35.7947 55.595 36.2781 55.1834 36.6748C55.0158 36.8363 54.821 37.0229 54.6075 37.2254C52.774 38.9642 50.3417 38.105 50.3355 35.5781C50.3352 35.4454 50.3356 35.3167 50.3365 35.1931C50.3434 34.2806 50.5834 33.2202 50.5834 33.2202L51.0378 32.1909M56.4398 34.4017L66.9469 6.8302C67.0143 6.65343 67.0598 6.46909 67.0823 6.28127L67.1074 6.07284C67.1642 5.6003 67.0323 5.12444 66.7404 4.74853V4.74853C66.3361 4.22789 65.6805 3.96861 65.0295 4.07191L64.852 4.10008C64.1518 4.21117 63.5541 4.66618 63.2606 5.31152L51.0378 32.1909" stroke="#00B28C" stroke-width="4"/>
</g>
<defs>
<clipPath id="clip0_95_1797">
<rect width="100" height="102" fill="white"/>
</clipPath>
</defs>
</svg>
