<svg xmlns="http://www.w3.org/2000/svg" width="24" height="24" fill="none" xmlns:v="https://vecta.io/nano"><style><![CDATA[.B{fill:#ed4c5c}.C{fill:#c8b100}]]></style><path d="M.75 12c0 2.213.638 4.275 1.725 6h19.013c1.087-1.725 1.725-3.787 1.725-6s-.637-4.275-1.725-6H2.475C1.388 7.725.75 9.788.75 12z" fill="#ffce31"/><path d="M21.525 6A11.25 11.25 0 0 0 12 .75 11.25 11.25 0 0 0 2.475 6h19.05zM2.475 18A11.25 11.25 0 0 0 12 23.25 11.25 11.25 0 0 0 21.525 18H2.475z" class="B"/><path d="M3.45 10.763h1.2v.675h-1.2v-.675zm0 4.95h1.238v.637H3.45v-.637z" class="C"/><path d="M3.338 14.663c-.112.075-.187.15-.187.188s.038.075.113.113.15.113.112.188c.075-.075.113-.15.113-.225 0-.113-.075-.225-.15-.263" class="B"/><path d="M3.638 11.438H4.5v4.275h-.863v-4.275z" fill="#fff"/><g class="B"><path d="M5.4 13.013c-.187-.075-.525-.15-.9-.15-.112 0-.263 0-.413.037-.525.075-.937.3-.9.45L3 12.938c-.038-.187.412-.412.975-.525.188-.037.375-.037.525-.037.375 0 .712.037.9.113v.525"/><path d="M3.638 13.575c-.225 0-.413-.075-.413-.187 0-.075.075-.187.225-.262h.225l-.038.45zm.862-.337c.15.037.263.075.338.112.037.037-.112.188-.338.3v-.412"/><path d="M3.075 14.4c-.038-.075.225-.225.563-.338.15-.037.262-.112.45-.187.45-.187.825-.45.75-.525l.075.45c.038.075-.262.3-.712.525a3.52 3.52 0 0 1-.562.225c-.263.075-.488.225-.488.262l-.075-.412"/></g><path d="M11.512 10.763h1.2v.675h-1.2v-.675zm-.037 4.95h1.237v.637h-1.237v-.637z" class="C"/><path d="M12.825 14.663c.113.075.188.15.188.188s-.037.075-.112.113c-.075.075-.15.188-.113.225-.075-.075-.113-.15-.113-.225 0-.15.075-.262.15-.3" class="B"/><path d="M11.662 11.438h.862v4.275h-.862v-4.275z" fill="#fff"/><g class="B"><path d="M10.763 13.013c.188-.075.525-.15.9-.15.113 0 .263 0 .413.037.525.075.938.3.9.45l.188-.45c.038-.187-.412-.412-.975-.525h-.525c-.375 0-.712.037-.9.113v.525"/><path d="M12.525 13.575c.225 0 .412-.075.412-.187 0-.075-.075-.187-.225-.262h-.225l.037.45zm-.863-.337c-.15.037-.262.075-.337.112-.038.037.112.188.337.3v-.412"/><path d="M13.087 14.4c.037-.075-.225-.225-.562-.338-.15-.037-.263-.113-.45-.187-.45-.187-.825-.45-.75-.525l-.075.45c-.037.075.262.3.713.525a3.52 3.52 0 0 0 .563.225c.262.075.487.262.45.3l.113-.45h0zM8.062 8.363c.713 0 2.175.15 2.7.675-.562 1.35-1.463.787-2.7.787-1.2 0-2.137.562-2.7-.787.525-.525 1.95-.675 2.7-.675z"/></g><path d="M9.9 9.863c-.45-.263-1.125-.3-1.838-.3s-1.388.075-1.838.3l.15.637c.413.113 1.013.188 1.688.225.675 0 1.237-.075 1.688-.225l.15-.637zm.637-1.613a1.34 1.34 0 0 0-.713-.225c-.112 0-.225 0-.338.037 0 0-.225-.3-.75-.3-.187 0-.337.037-.487.112v-.037c-.037-.075-.113-.15-.187-.15s-.188.112-.188.188v.037c-.15-.075-.3-.112-.487-.112-.525 0-.75.337-.75.3-.112-.037-.225-.037-.337-.037-1.725 0-.863 1.162-.863 1.162L5.625 9c-.412-.525-.037-.825.713-.825.112 0 .188 0 .263.037-.263.375.225.713.225.713l.112-.187c-.262-.187-.3-.825.45-.825.188 0 .338.038.487.15 0 .037-.037.563-.075.637l.3.263.3-.263c-.038-.112-.075-.6-.075-.637a.94.94 0 0 1 .487-.15c.787 0 .787.638.45.825l.113.188s.412-.338.225-.713c.075 0 .188-.037.262-.037.9 0 .938.675.713.825l.15.225c-.075 0 .338-.525-.187-.975" class="C"/><path d="M7.838 7.538c0-.112.112-.225.225-.225s.225.112.225.225-.113.225-.225.225-.225-.112-.225-.225z" fill="#005bbf"/><path d="M7.988 6.9v.113h-.112v.112h.112V7.5h-.15v.112h.45l.037-.075-.037-.037h-.15v-.375h.112v-.112h-.112V6.9h-.15z" class="C"/><path d="M8.063 10.613c-.6 0-1.125-.075-1.537-.187.413-.113.938-.187 1.537-.187s1.125.075 1.538.188c-.375.112-.937.188-1.538.188z" class="B"/><path d="M8.1 17.1c-.713 0-1.388-.187-1.988-.45-.45-.225-.713-.637-.713-1.125v-1.8h5.4v1.8c0 .487-.3.937-.713 1.125-.6.3-1.275.45-1.988.45zm-.038-6.375h2.7v3h-2.7v-3z" fill="#fff"/><path d="M8.1 15.525c0 .713-.6 1.275-1.35 1.275s-1.35-.562-1.35-1.275v-1.8h2.7v1.8z" class="B"/><path d="M5.962 16.575c.075.038.188.113.338.15V13.65H6l-.037 2.925zm-.6-1.088c0 .375.15.675.3.825V13.65h-.3v1.837z" class="C"/><path d="M6.563 16.8h.3v-3.15h-.3v3.15z" fill="#c7b500"/><path d="M7.162 16.725c.112-.038.263-.113.337-.15V13.65h-.3l-.037 3.075" class="C"/><path d="M5.362 10.725h2.7v3h-2.7v-3z" class="B"/><path d="M7.8 16.313c.15-.113.263-.375.3-.675v-1.95h-.3v2.625z" class="C"/><path d="M10.8 13.725v1.8c0 .713-.6 1.275-1.35 1.275s-1.35-.562-1.35-1.275v-1.8h2.7 0zm-.975-2.475c.112.225.112.787-.225.675.075.037.112.3.225.45.188.225.413.037.375-.225-.075-.412-.037-.675.037-1.088 0 .037.188.037.263-.037-.038.113-.075.262 0 .262-.075.113-.263.3-.3.413-.037.262.375.75-.075.862-.3.075-.113.3 0 .412 0 0-.15.488-.075.45-.3.112-.225-.15-.225-.15.15-.45-.263-.488-.225-.562-.375-.037.037.338-.3.338-.075 0-.225.075-.225.075-.412-.037-.187-.412-.037-.375.112.037.225.225.225-.037 0 0-.187-.3.3-.3-.187 0-.3-.15-.375-.337-.075.037-.187.225-.6.262 0 0-.112-.412 0-.338.15.075.225.075.375-.075-.075-.113-.525-.263-.45-.525 0-.075.225-.187.225-.187-.037.188.075.375.3.375.3.037.188-.075.225-.15s.262.037.188-.15c0-.037-.263-.075-.187-.187.15-.187.375-.037.563.15h0zM8.1 16.725l-.075-.187.075-.225.075.225-.075.188z" class="B"/><path d="M6.188 11.363v.188h.075v.15h-.187v.375h.113v.825h-.225v.412H7.5V12.9h-.187v-.825h.075V11.7H7.2v-.15h.113v-.187h-.375v.188h.075v.15h-.187v-.45h.113v-.187h-.413v.188h.112v.45H6.45v-.15h.075v-.187h-.337zm4.238 4.612V14.1h-1.95v1.875l.9.412h.113l.938-.412zm-1.05-1.725v.637l-.637-.637h.637zm-.787.037l.75.75-.75.75v-1.5zm.075 1.65l.712-.713v1.05l-.712-.337zm.825.3v-1.05l.713.713-.713.338zm.788-.45l-.75-.75.75-.75v1.5zm-.788-1.537h.638l-.638.637v-.637z" class="C"/><path d="M7.2 13.687c0-.562.375-.975.862-.975s.863.45.863.975-.375.975-.863.975-.862-.412-.862-.975z" class="B"/><path d="M7.463 13.688c0-.412.263-.713.6-.713s.6.338.6.713c0 .412-.263.713-.6.713s-.6-.3-.6-.713z" fill="#005bbf"/><path d="M7.8 13.2l-.15.413.112.037-.075.15h.225l-.075-.15.112-.037-.15-.413h0zm.563 0l-.15.413.113.037-.075.15h.225l-.038-.15.113-.037-.187-.413h0zm-.262.488l-.188.412.112.038-.037.15h.188l-.037-.15.112-.038-.15-.412z" class="C"/></svg>